<svg width="135" height="36" viewBox="0 0 135 36" fill="none" xmlns="http://www.w3.org/2000/svg">
<g clip-path="url(#clip0_227_511)">
<path d="M41.8619 16.38H27.2481C27.3639 17.965 27.9304 19.2349 28.9501 20.1949C29.9674 21.1549 31.2186 21.6349 32.6988 21.6349C34.8274 21.6349 36.3317 20.7125 37.2117 18.8625H41.4811C40.9024 20.6875 39.8538 22.18 38.3398 23.345C36.8236 24.5099 34.9431 25.09 32.6988 25.09C30.8715 25.09 29.2322 24.665 27.7858 23.8125C26.3393 22.96 25.2039 21.76 24.3842 20.2125C23.5622 18.665 23.1523 16.87 23.1523 14.83C23.1523 12.79 23.5525 10.995 24.3504 9.44748C25.1485 7.89998 26.2718 6.70498 27.7182 5.86498C29.1647 5.02498 30.8256 4.60498 32.6988 4.60498C34.5719 4.60498 36.1123 5.01248 37.525 5.82998C38.9353 6.64498 40.037 7.79248 40.8229 9.26748C41.6088 10.7425 42.0042 12.4425 42.0042 14.3625C42.0042 15.1075 41.9584 15.78 41.8643 16.3775L41.8619 16.38ZM37.8698 13.0675C37.8456 11.5549 37.3249 10.345 36.3076 9.43249C35.2879 8.51999 34.0271 8.06499 32.5228 8.06499C31.156 8.06499 29.9892 8.51499 29.0176 9.41499C28.0461 10.315 27.4675 11.5325 27.2819 13.07H37.8698V13.0675Z" fill="#5932EA"/>
<path d="M50.507 8.28V19.26C50.507 20.005 50.6757 20.5375 51.0107 20.8625C51.3458 21.1875 51.9196 21.3475 52.7296 21.3475H55.1596V24.7675H52.0353C50.2539 24.7675 48.887 24.335 47.9395 23.4725C46.9897 22.6075 46.5172 21.205 46.5172 19.26V8.28H44.2607V4.9325H46.5172V0H50.5094V4.9325H55.162V8.28H50.5094H50.507Z" fill="#5932EA"/>
<path d="M86.0018 5.57999C87.1928 6.22748 88.1306 7.18748 88.8128 8.45999C89.4949 9.73249 89.8373 11.2675 89.8373 13.0675V24.7675H85.915V13.68C85.915 11.905 85.486 10.5425 84.6301 9.59499C83.7743 8.64749 82.6051 8.17249 81.1249 8.17249C79.6448 8.17249 78.4684 8.64749 77.6006 9.59499C76.7326 10.5425 76.2987 11.905 76.2987 13.68V24.7675H72.3765V13.68C72.3765 11.905 71.9474 10.5425 71.0916 9.59499C70.2358 8.64749 69.0666 8.17249 67.5864 8.17249C66.1062 8.17249 64.9298 8.64749 64.0619 9.59499C63.1941 10.5425 62.7601 11.905 62.7601 13.68V24.7675H58.8018V4.93249H62.7601V7.19999C63.4087 6.38499 64.2307 5.74748 65.2239 5.29249C66.2195 4.83749 67.2826 4.60749 68.4181 4.60749C69.9465 4.60749 71.311 4.94248 72.5139 5.61498C73.7168 6.28748 74.6425 7.25999 75.2911 8.52998C75.8696 7.32998 76.7712 6.37498 77.9983 5.66748C79.2254 4.95998 80.544 4.60498 81.9567 4.60498C83.461 4.60498 84.8086 4.92998 86.0018 5.57748V5.57999Z" fill="#5932EA"/>
<path d="M128.653 14.7251L134.832 24.77H130.352L126.221 18.0375L122.332 24.77H118.2L124.379 15.0151L118.2 4.93506H122.679L126.811 11.6676L130.699 4.93506H134.832L128.653 14.7276V14.7251Z" fill="#5932EA"/>
<path d="M94.0559 21.0426C95.1225 21.0426 95.987 20.146 95.987 19.0401C95.987 17.9342 95.1225 17.0376 94.0559 17.0376C92.9897 17.0376 92.125 17.9342 92.125 19.0401C92.125 20.146 92.9897 21.0426 94.0559 21.0426Z" fill="#5932EA"/>
<path d="M19.2448 5.76743C20.4857 5.76743 21.4916 4.72425 21.4916 3.43743C21.4916 2.1506 20.4857 1.10742 19.2448 1.10742C18.0039 1.10742 16.998 2.1506 16.998 3.43743C16.998 4.72425 18.0039 5.76743 19.2448 5.76743Z" fill="#5932EA"/>
<path d="M19.3078 32.47H1.87109V35.8425H19.3078V32.47Z" fill="#5932EA"/>
<path d="M19.2416 25.7476H14.9746V30.1725H19.2416V25.7476Z" fill="#5932EA"/>
<path d="M10.5685 3.51489C4.73223 3.51489 0 8.42239 0 14.4749C0 20.5274 4.73223 25.4349 10.5685 25.4349C16.4049 25.4349 21.1372 20.5274 21.1372 14.4749C21.1372 8.42239 16.4049 3.51489 10.5685 3.51489ZM10.5999 21.7949C6.74277 21.7949 3.61366 18.5524 3.61366 14.5499C3.61366 10.5474 6.74035 7.3049 10.5999 7.3049C14.4595 7.3049 17.5861 10.5474 17.5861 14.5499C17.5861 18.5524 14.4595 21.7949 10.5999 21.7949Z" fill="#5932EA"/>
<path d="M96.9687 21.9902L116.131 25.5051L108.371 0.245117L94.7051 14.9677L97.2772 17.5626L106.749 7.39011L110.826 20.7252L97.5714 18.3201L96.9687 21.9902Z" fill="#5932EA"/>
</g>
<defs>
<clipPath id="clip0_227_511">
<rect width="135" height="36" fill="white"/>
</clipPath>
</defs>
</svg>
